<svg xmlns="http://www.w3.org/2000/svg" width="682" height="758" viewBox="0 0 682 758">
<rect width="100%" height="100%" fill="#ffffff"/>
<text x="82" y="42" font-size="28" font-family="Segoe UI, Arial, sans-serif" font-weight="700" fill="#c0392b">Exhaustive Depth-First Search - N = 10</text>
<text x="82" y="74" font-size="20" font-family="Consolas, Courier New, monospace" fill="#c0392b">Solution vector: [0, 2, 5, 7, 9, 4, 8, 1, 3, 6]</text>
<text x="110.0" y="90" text-anchor="middle" font-size="18" font-family="Segoe UI, Arial, sans-serif" fill="#c0392b">0</text>
<text x="166.0" y="90" text-anchor="middle" font-size="18" font-family="Segoe UI, Arial, sans-serif" fill="#c0392b">1</text>
<text x="222.0" y="90" text-anchor="middle" font-size="18" font-family="Segoe UI, Arial, sans-serif" fill="#c0392b">2</text>
<text x="278.0" y="90" text-anchor="middle" font-size="18" font-family="Segoe UI, Arial, sans-serif" fill="#c0392b">3</text>
<text x="334.0" y="90" text-anchor="middle" font-size="18" font-family="Segoe UI, Arial, sans-serif" fill="#c0392b">4</text>
<text x="390.0" y="90" text-anchor="middle" font-size="18" font-family="Segoe UI, Arial, sans-serif" fill="#c0392b">5</text>
<text x="446.0" y="90" text-anchor="middle" font-size="18" font-family="Segoe UI, Arial, sans-serif" fill="#c0392b">6</text>
<text x="502.0" y="90" text-anchor="middle" font-size="18" font-family="Segoe UI, Arial, sans-serif" fill="#c0392b">7</text>
<text x="558.0" y="90" text-anchor="middle" font-size="18" font-family="Segoe UI, Arial, sans-serif" fill="#c0392b">8</text>
<text x="614.0" y="90" text-anchor="middle" font-size="18" font-family="Segoe UI, Arial, sans-serif" fill="#c0392b">9</text>
<text x="54" y="145.0" text-anchor="middle" font-size="18" font-family="Segoe UI, Arial, sans-serif" fill="#c0392b">0</text>
<rect x="82" y="110" width="56" height="56" fill="#2c3e50" stroke="#c0392b" stroke-width="1.2"/>
<circle cx="110.0" cy="138.0" r="14.56" fill="#c0392b" stroke="#ffffff" stroke-width="2.4"/>
<text x="110.0" y="146.0" text-anchor="middle" font-size="28" font-family="Segoe UI Symbol, Arial Unicode MS, serif" fill="#ffffff">Q</text>
<rect x="138" y="110" width="56" height="56" fill="#c0392b" stroke="#c0392b" stroke-width="1.2"/>
<rect x="194" y="110" width="56" height="56" fill="#2c3e50" stroke="#c0392b" stroke-width="1.2"/>
<rect x="250" y="110" width="56" height="56" fill="#c0392b" stroke="#c0392b" stroke-width="1.2"/>
<rect x="306" y="110" width="56" height="56" fill="#2c3e50" stroke="#c0392b" stroke-width="1.2"/>
<rect x="362" y="110" width="56" height="56" fill="#c0392b" stroke="#c0392b" stroke-width="1.2"/>
<rect x="418" y="110" width="56" height="56" fill="#2c3e50" stroke="#c0392b" stroke-width="1.2"/>
<rect x="474" y="110" width="56" height="56" fill="#c0392b" stroke="#c0392b" stroke-width="1.2"/>
<rect x="530" y="110" width="56" height="56" fill="#2c3e50" stroke="#c0392b" stroke-width="1.2"/>
<rect x="586" y="110" width="56" height="56" fill="#c0392b" stroke="#c0392b" stroke-width="1.2"/>
<text x="54" y="201.0" text-anchor="middle" font-size="18" font-family="Segoe UI, Arial, sans-serif" fill="#c0392b">1</text>
<rect x="82" y="166" width="56" height="56" fill="#c0392b" stroke="#c0392b" stroke-width="1.2"/>
<rect x="138" y="166" width="56" height="56" fill="#2c3e50" stroke="#c0392b" stroke-width="1.2"/>
<rect x="194" y="166" width="56" height="56" fill="#c0392b" stroke="#c0392b" stroke-width="1.2"/>
<circle cx="222.0" cy="194.0" r="14.56" fill="#c0392b" stroke="#ffffff" stroke-width="2.4"/>
<text x="222.0" y="202.0" text-anchor="middle" font-size="28" font-family="Segoe UI Symbol, Arial Unicode MS, serif" fill="#ffffff">Q</text>
<rect x="250" y="166" width="56" height="56" fill="#2c3e50" stroke="#c0392b" stroke-width="1.2"/>
<rect x="306" y="166" width="56" height="56" fill="#c0392b" stroke="#c0392b" stroke-width="1.2"/>
<rect x="362" y="166" width="56" height="56" fill="#2c3e50" stroke="#c0392b" stroke-width="1.2"/>
<rect x="418" y="166" width="56" height="56" fill="#c0392b" stroke="#c0392b" stroke-width="1.2"/>
<rect x="474" y="166" width="56" height="56" fill="#2c3e50" stroke="#c0392b" stroke-width="1.2"/>
<rect x="530" y="166" width="56" height="56" fill="#c0392b" stroke="#c0392b" stroke-width="1.2"/>
<rect x="586" y="166" width="56" height="56" fill="#2c3e50" stroke="#c0392b" stroke-width="1.2"/>
<text x="54" y="257.0" text-anchor="middle" font-size="18" font-family="Segoe UI, Arial, sans-serif" fill="#c0392b">2</text>
<rect x="82" y="222" width="56" height="56" fill="#2c3e50" stroke="#c0392b" stroke-width="1.2"/>
<rect x="138" y="222" width="56" height="56" fill="#c0392b" stroke="#c0392b" stroke-width="1.2"/>
<rect x="194" y="222" width="56" height="56" fill="#2c3e50" stroke="#c0392b" stroke-width="1.2"/>
<rect x="250" y="222" width="56" height="56" fill="#c0392b" stroke="#c0392b" stroke-width="1.2"/>
<rect x="306" y="222" width="56" height="56" fill="#2c3e50" stroke="#c0392b" stroke-width="1.2"/>
<rect x="362" y="222" width="56" height="56" fill="#c0392b" stroke="#c0392b" stroke-width="1.2"/>
<circle cx="390.0" cy="250.0" r="14.56" fill="#c0392b" stroke="#ffffff" stroke-width="2.4"/>
<text x="390.0" y="258.0" text-anchor="middle" font-size="28" font-family="Segoe UI Symbol, Arial Unicode MS, serif" fill="#ffffff">Q</text>
<rect x="418" y="222" width="56" height="56" fill="#2c3e50" stroke="#c0392b" stroke-width="1.2"/>
<rect x="474" y="222" width="56" height="56" fill="#c0392b" stroke="#c0392b" stroke-width="1.2"/>
<rect x="530" y="222" width="56" height="56" fill="#2c3e50" stroke="#c0392b" stroke-width="1.2"/>
<rect x="586" y="222" width="56" height="56" fill="#c0392b" stroke="#c0392b" stroke-width="1.2"/>
<text x="54" y="313.0" text-anchor="middle" font-size="18" font-family="Segoe UI, Arial, sans-serif" fill="#c0392b">3</text>
<rect x="82" y="278" width="56" height="56" fill="#c0392b" stroke="#c0392b" stroke-width="1.2"/>
<rect x="138" y="278" width="56" height="56" fill="#2c3e50" stroke="#c0392b" stroke-width="1.2"/>
<rect x="194" y="278" width="56" height="56" fill="#c0392b" stroke="#c0392b" stroke-width="1.2"/>
<rect x="250" y="278" width="56" height="56" fill="#2c3e50" stroke="#c0392b" stroke-width="1.2"/>
<rect x="306" y="278" width="56" height="56" fill="#c0392b" stroke="#c0392b" stroke-width="1.2"/>
<rect x="362" y="278" width="56" height="56" fill="#2c3e50" stroke="#c0392b" stroke-width="1.2"/>
<rect x="418" y="278" width="56" height="56" fill="#c0392b" stroke="#c0392b" stroke-width="1.2"/>
<rect x="474" y="278" width="56" height="56" fill="#2c3e50" stroke="#c0392b" stroke-width="1.2"/>
<circle cx="502.0" cy="306.0" r="14.56" fill="#c0392b" stroke="#ffffff" stroke-width="2.4"/>
<text x="502.0" y="314.0" text-anchor="middle" font-size="28" font-family="Segoe UI Symbol, Arial Unicode MS, serif" fill="#ffffff">Q</text>
<rect x="530" y="278" width="56" height="56" fill="#c0392b" stroke="#c0392b" stroke-width="1.2"/>
<rect x="586" y="278" width="56" height="56" fill="#2c3e50" stroke="#c0392b" stroke-width="1.2"/>
<text x="54" y="369.0" text-anchor="middle" font-size="18" font-family="Segoe UI, Arial, sans-serif" fill="#c0392b">4</text>
<rect x="82" y="334" width="56" height="56" fill="#2c3e50" stroke="#c0392b" stroke-width="1.2"/>
<rect x="138" y="334" width="56" height="56" fill="#c0392b" stroke="#c0392b" stroke-width="1.2"/>
<rect x="194" y="334" width="56" height="56" fill="#2c3e50" stroke="#c0392b" stroke-width="1.2"/>
<rect x="250" y="334" width="56" height="56" fill="#c0392b" stroke="#c0392b" stroke-width="1.2"/>
<rect x="306" y="334" width="56" height="56" fill="#2c3e50" stroke="#c0392b" stroke-width="1.2"/>
<rect x="362" y="334" width="56" height="56" fill="#c0392b" stroke="#c0392b" stroke-width="1.2"/>
<rect x="418" y="334" width="56" height="56" fill="#2c3e50" stroke="#c0392b" stroke-width="1.2"/>
<rect x="474" y="334" width="56" height="56" fill="#c0392b" stroke="#c0392b" stroke-width="1.2"/>
<rect x="530" y="334" width="56" height="56" fill="#2c3e50" stroke="#c0392b" stroke-width="1.2"/>
<rect x="586" y="334" width="56" height="56" fill="#c0392b" stroke="#c0392b" stroke-width="1.2"/>
<circle cx="614.0" cy="362.0" r="14.56" fill="#c0392b" stroke="#ffffff" stroke-width="2.4"/>
<text x="614.0" y="370.0" text-anchor="middle" font-size="28" font-family="Segoe UI Symbol, Arial Unicode MS, serif" fill="#ffffff">Q</text>
<text x="54" y="425.0" text-anchor="middle" font-size="18" font-family="Segoe UI, Arial, sans-serif" fill="#c0392b">5</text>
<rect x="82" y="390" width="56" height="56" fill="#c0392b" stroke="#c0392b" stroke-width="1.2"/>
<rect x="138" y="390" width="56" height="56" fill="#2c3e50" stroke="#c0392b" stroke-width="1.2"/>
<rect x="194" y="390" width="56" height="56" fill="#c0392b" stroke="#c0392b" stroke-width="1.2"/>
<rect x="250" y="390" width="56" height="56" fill="#2c3e50" stroke="#c0392b" stroke-width="1.2"/>
<rect x="306" y="390" width="56" height="56" fill="#c0392b" stroke="#c0392b" stroke-width="1.2"/>
<circle cx="334.0" cy="418.0" r="14.56" fill="#c0392b" stroke="#ffffff" stroke-width="2.4"/>
<text x="334.0" y="426.0" text-anchor="middle" font-size="28" font-family="Segoe UI Symbol, Arial Unicode MS, serif" fill="#ffffff">Q</text>
<rect x="362" y="390" width="56" height="56" fill="#2c3e50" stroke="#c0392b" stroke-width="1.2"/>
<rect x="418" y="390" width="56" height="56" fill="#c0392b" stroke="#c0392b" stroke-width="1.2"/>
<rect x="474" y="390" width="56" height="56" fill="#2c3e50" stroke="#c0392b" stroke-width="1.2"/>
<rect x="530" y="390" width="56" height="56" fill="#c0392b" stroke="#c0392b" stroke-width="1.2"/>
<rect x="586" y="390" width="56" height="56" fill="#2c3e50" stroke="#c0392b" stroke-width="1.2"/>
<text x="54" y="481.0" text-anchor="middle" font-size="18" font-family="Segoe UI, Arial, sans-serif" fill="#c0392b">6</text>
<rect x="82" y="446" width="56" height="56" fill="#2c3e50" stroke="#c0392b" stroke-width="1.2"/>
<rect x="138" y="446" width="56" height="56" fill="#c0392b" stroke="#c0392b" stroke-width="1.2"/>
<rect x="194" y="446" width="56" height="56" fill="#2c3e50" stroke="#c0392b" stroke-width="1.2"/>
<rect x="250" y="446" width="56" height="56" fill="#c0392b" stroke="#c0392b" stroke-width="1.2"/>
<rect x="306" y="446" width="56" height="56" fill="#2c3e50" stroke="#c0392b" stroke-width="1.2"/>
<rect x="362" y="446" width="56" height="56" fill="#c0392b" stroke="#c0392b" stroke-width="1.2"/>
<rect x="418" y="446" width="56" height="56" fill="#2c3e50" stroke="#c0392b" stroke-width="1.2"/>
<rect x="474" y="446" width="56" height="56" fill="#c0392b" stroke="#c0392b" stroke-width="1.2"/>
<rect x="530" y="446" width="56" height="56" fill="#2c3e50" stroke="#c0392b" stroke-width="1.2"/>
<circle cx="558.0" cy="474.0" r="14.56" fill="#c0392b" stroke="#ffffff" stroke-width="2.4"/>
<text x="558.0" y="482.0" text-anchor="middle" font-size="28" font-family="Segoe UI Symbol, Arial Unicode MS, serif" fill="#ffffff">Q</text>
<rect x="586" y="446" width="56" height="56" fill="#c0392b" stroke="#c0392b" stroke-width="1.2"/>
<text x="54" y="537.0" text-anchor="middle" font-size="18" font-family="Segoe UI, Arial, sans-serif" fill="#c0392b">7</text>
<rect x="82" y="502" width="56" height="56" fill="#c0392b" stroke="#c0392b" stroke-width="1.2"/>
<rect x="138" y="502" width="56" height="56" fill="#2c3e50" stroke="#c0392b" stroke-width="1.2"/>
<circle cx="166.0" cy="530.0" r="14.56" fill="#c0392b" stroke="#ffffff" stroke-width="2.4"/>
<text x="166.0" y="538.0" text-anchor="middle" font-size="28" font-family="Segoe UI Symbol, Arial Unicode MS, serif" fill="#ffffff">Q</text>
<rect x="194" y="502" width="56" height="56" fill="#c0392b" stroke="#c0392b" stroke-width="1.2"/>
<rect x="250" y="502" width="56" height="56" fill="#2c3e50" stroke="#c0392b" stroke-width="1.2"/>
<rect x="306" y="502" width="56" height="56" fill="#c0392b" stroke="#c0392b" stroke-width="1.2"/>
<rect x="362" y="502" width="56" height="56" fill="#2c3e50" stroke="#c0392b" stroke-width="1.2"/>
<rect x="418" y="502" width="56" height="56" fill="#c0392b" stroke="#c0392b" stroke-width="1.2"/>
<rect x="474" y="502" width="56" height="56" fill="#2c3e50" stroke="#c0392b" stroke-width="1.2"/>
<rect x="530" y="502" width="56" height="56" fill="#c0392b" stroke="#c0392b" stroke-width="1.2"/>
<rect x="586" y="502" width="56" height="56" fill="#2c3e50" stroke="#c0392b" stroke-width="1.2"/>
<text x="54" y="593.0" text-anchor="middle" font-size="18" font-family="Segoe UI, Arial, sans-serif" fill="#c0392b">8</text>
<rect x="82" y="558" width="56" height="56" fill="#2c3e50" stroke="#c0392b" stroke-width="1.2"/>
<rect x="138" y="558" width="56" height="56" fill="#c0392b" stroke="#c0392b" stroke-width="1.2"/>
<rect x="194" y="558" width="56" height="56" fill="#2c3e50" stroke="#c0392b" stroke-width="1.2"/>
<rect x="250" y="558" width="56" height="56" fill="#c0392b" stroke="#c0392b" stroke-width="1.2"/>
<circle cx="278.0" cy="586.0" r="14.56" fill="#c0392b" stroke="#ffffff" stroke-width="2.4"/>
<text x="278.0" y="594.0" text-anchor="middle" font-size="28" font-family="Segoe UI Symbol, Arial Unicode MS, serif" fill="#ffffff">Q</text>
<rect x="306" y="558" width="56" height="56" fill="#2c3e50" stroke="#c0392b" stroke-width="1.2"/>
<rect x="362" y="558" width="56" height="56" fill="#c0392b" stroke="#c0392b" stroke-width="1.2"/>
<rect x="418" y="558" width="56" height="56" fill="#2c3e50" stroke="#c0392b" stroke-width="1.2"/>
<rect x="474" y="558" width="56" height="56" fill="#c0392b" stroke="#c0392b" stroke-width="1.2"/>
<rect x="530" y="558" width="56" height="56" fill="#2c3e50" stroke="#c0392b" stroke-width="1.2"/>
<rect x="586" y="558" width="56" height="56" fill="#c0392b" stroke="#c0392b" stroke-width="1.2"/>
<text x="54" y="649.0" text-anchor="middle" font-size="18" font-family="Segoe UI, Arial, sans-serif" fill="#c0392b">9</text>
<rect x="82" y="614" width="56" height="56" fill="#c0392b" stroke="#c0392b" stroke-width="1.2"/>
<rect x="138" y="614" width="56" height="56" fill="#2c3e50" stroke="#c0392b" stroke-width="1.2"/>
<rect x="194" y="614" width="56" height="56" fill="#c0392b" stroke="#c0392b" stroke-width="1.2"/>
<rect x="250" y="614" width="56" height="56" fill="#2c3e50" stroke="#c0392b" stroke-width="1.2"/>
<rect x="306" y="614" width="56" height="56" fill="#c0392b" stroke="#c0392b" stroke-width="1.2"/>
<rect x="362" y="614" width="56" height="56" fill="#2c3e50" stroke="#c0392b" stroke-width="1.2"/>
<rect x="418" y="614" width="56" height="56" fill="#c0392b" stroke="#c0392b" stroke-width="1.2"/>
<circle cx="446.0" cy="642.0" r="14.56" fill="#c0392b" stroke="#ffffff" stroke-width="2.4"/>
<text x="446.0" y="650.0" text-anchor="middle" font-size="28" font-family="Segoe UI Symbol, Arial Unicode MS, serif" fill="#ffffff">Q</text>
<rect x="474" y="614" width="56" height="56" fill="#2c3e50" stroke="#c0392b" stroke-width="1.2"/>
<rect x="530" y="614" width="56" height="56" fill="#c0392b" stroke="#c0392b" stroke-width="1.2"/>
<rect x="586" y="614" width="56" height="56" fill="#2c3e50" stroke="#c0392b" stroke-width="1.2"/>
<text x="82" y="730" font-size="18" font-family="Segoe UI, Arial, sans-serif" fill="#c0392b">Board visual saved for notebook presentation and report use.</text>
</svg>